<mxfile host="app.diagrams.net" modified="2021-05-20T07:11:58.917Z" agent="5.0 (Windows NT 10.0; WOW64) AppleWebKit/537.36 (KHTML, like Gecko) Chrome/75.0.3770.100 Safari/537.36" etag="JaMLftvK6R1kV_2GF0NI" version="14.6.13" type="github">
  <diagram id="prtHgNgQTEPvFCAcTncT" name="Page-1">
    <mxGraphModel dx="1382" dy="760" grid="1" gridSize="10" guides="1" tooltips="1" connect="1" arrows="1" fold="1" page="1" pageScale="1" pageWidth="827" pageHeight="1169" math="0" shadow="0">
      <root>
        <mxCell id="0" />
        <mxCell id="1" parent="0" />
        <mxCell id="uqWAWXD4FmbdqLs9K8xn-3" value="" style="edgeStyle=orthogonalEdgeStyle;rounded=0;orthogonalLoop=1;jettySize=auto;html=1;" edge="1" parent="1" source="uqWAWXD4FmbdqLs9K8xn-1" target="uqWAWXD4FmbdqLs9K8xn-2">
          <mxGeometry relative="1" as="geometry">
            <Array as="points">
              <mxPoint x="395" y="550" />
              <mxPoint x="270" y="550" />
            </Array>
          </mxGeometry>
        </mxCell>
        <mxCell id="uqWAWXD4FmbdqLs9K8xn-5" value="" style="edgeStyle=orthogonalEdgeStyle;rounded=0;orthogonalLoop=1;jettySize=auto;html=1;" edge="1" parent="1" source="uqWAWXD4FmbdqLs9K8xn-1" target="uqWAWXD4FmbdqLs9K8xn-4">
          <mxGeometry relative="1" as="geometry" />
        </mxCell>
        <mxCell id="uqWAWXD4FmbdqLs9K8xn-1" value="开发者账号" style="rounded=1;whiteSpace=wrap;html=1;" vertex="1" parent="1">
          <mxGeometry x="335" y="440" width="120" height="60" as="geometry" />
        </mxCell>
        <mxCell id="uqWAWXD4FmbdqLs9K8xn-7" value="" style="edgeStyle=orthogonalEdgeStyle;rounded=0;orthogonalLoop=1;jettySize=auto;html=1;" edge="1" parent="1" source="uqWAWXD4FmbdqLs9K8xn-2" target="uqWAWXD4FmbdqLs9K8xn-6">
          <mxGeometry relative="1" as="geometry" />
        </mxCell>
        <mxCell id="uqWAWXD4FmbdqLs9K8xn-10" value="" style="edgeStyle=orthogonalEdgeStyle;rounded=0;orthogonalLoop=1;jettySize=auto;html=1;" edge="1" parent="1" source="uqWAWXD4FmbdqLs9K8xn-2" target="uqWAWXD4FmbdqLs9K8xn-9">
          <mxGeometry relative="1" as="geometry" />
        </mxCell>
        <mxCell id="uqWAWXD4FmbdqLs9K8xn-2" value="项目1" style="rounded=1;whiteSpace=wrap;html=1;" vertex="1" parent="1">
          <mxGeometry x="215" y="585" width="120" height="60" as="geometry" />
        </mxCell>
        <mxCell id="uqWAWXD4FmbdqLs9K8xn-4" value="项目2" style="rounded=1;whiteSpace=wrap;html=1;" vertex="1" parent="1">
          <mxGeometry x="430" y="600" width="120" height="60" as="geometry" />
        </mxCell>
        <mxCell id="uqWAWXD4FmbdqLs9K8xn-6" value="应用1" style="rounded=1;whiteSpace=wrap;html=1;" vertex="1" parent="1">
          <mxGeometry x="60" y="760" width="120" height="60" as="geometry" />
        </mxCell>
        <mxCell id="uqWAWXD4FmbdqLs9K8xn-9" value="应用2" style="rounded=1;whiteSpace=wrap;html=1;" vertex="1" parent="1">
          <mxGeometry x="420" y="770" width="120" height="60" as="geometry" />
        </mxCell>
      </root>
    </mxGraphModel>
  </diagram>
</mxfile>
